HIERARCHY
ROOT Hips
{
	OFFSET 0.00000 0.00000 0.00000
	CHANNELS 6 Xposition Yposition Zposition Zrotation Yrotation Xrotation 
	JOINT LHipJoint
	{
		OFFSET 0 0 0
		CHANNELS 3 Zrotation Yrotation Xrotation
		JOINT LeftHip
		{
			OFFSET 1.58161 -1.81893 0.78828
			CHANNELS 3 Zrotation Yrotation Xrotation
			JOINT LeftKnee
			{
				OFFSET 2.53374 -6.96141 0.00000
				CHANNELS 3 Zrotation Yrotation Xrotation
				JOINT LeftAnkle
				{
					OFFSET 2.63509 -7.23986 0.00000
					CHANNELS 3 Zrotation Yrotation Xrotation
					JOINT LeftToe
					{
						OFFSET 0.14115 -0.38781 2.05350
						CHANNELS 3 Zrotation Yrotation Xrotation
						End Site
						{
							OFFSET 0.00000 -0.00000 1.05543
						}
					}
				}
			}
		}
	}
	JOINT RHipJoint
	{
		OFFSET 0 0 0
		CHANNELS 3 Zrotation Yrotation Xrotation
		JOINT RightHip
		{
			OFFSET -1.11138 -1.81893 0.78828
			CHANNELS 3 Zrotation Yrotation Xrotation
			JOINT RightKnee
			{
				OFFSET -2.58392 -7.09926 0.00000
				CHANNELS 3 Zrotation Yrotation Xrotation
				JOINT RightAnkle
				{
					OFFSET -2.66423 -7.31992 0.00000
					CHANNELS 3 Zrotation Yrotation Xrotation
					JOINT RightToe
					{
						OFFSET -0.18831 -0.51739 2.12114
						CHANNELS 3 Zrotation Yrotation Xrotation
						End Site
						{
							OFFSET -0.00000 -0.00000 1.09845
						}
					}
				}
			}
		}
	}
	JOINT lowerback
	{
		OFFSET 0 0 0
		CHANNELS 3 Zrotation Yrotation Xrotation
		JOINT Chest
		{
			OFFSET -0.01511 1.97958 -0.08829
			CHANNELS 3 Zrotation Yrotation Xrotation
			JOINT Chest2
			{
				OFFSET 0.08344 1.97334 -0.04330
				CHANNELS 3 Zrotation Yrotation Xrotation
				JOINT lowerneck
				{
					OFFSET 0 0 0
					CHANNELS 3 Zrotation Yrotation Xrotation
					JOINT Neck
					{
						OFFSET 0.00559 1.76246 0.31246
						CHANNELS 3 Zrotation Yrotation Xrotation
						JOINT Head
						{
							OFFSET -0.07011 1.80354 -0.30524
							CHANNELS 3 Zrotation Yrotation Xrotation
							End Site
							{
								OFFSET -0.02385 1.83547 -0.13906
							}
						}
					}
				}
				JOINT LeftCollar
				{
					OFFSET 0 0 0
					CHANNELS 3 Zrotation Yrotation Xrotation
					JOINT LeftShoulder
					{
						OFFSET 3.20667 1.30156 -0.60240
CHANNELS 3 Zrotation Xrotation Yrotation
						JOINT LeftElbow
						{
OFFSET 0 -4.956630 0.000000
CHANNELS 3 Zrotation Xrotation Yrotation
							JOINT LeftWrist
							{
OFFSET 0 -3.381770 0.000000
CHANNELS 3 Zrotation Xrotation Yrotation
								JOINT lhand
								{
									OFFSET 0 0 0
CHANNELS 3 Zrotation Xrotation Yrotation
									JOINT LFingers
									{
OFFSET 0 -0.662910 0.000000
CHANNELS 3 Zrotation Xrotation Yrotation
										End Site
										{
OFFSET 0 -0.534450 0.000000
										}
									}
								}
								JOINT LThumb
								{
OFFSET 0 0.000000 0.000000
CHANNELS 3 Zrotation Xrotation Yrotation
									End Site
									{
OFFSET 0 -0.542610 0.542610
									}
								}
							}
						}
					}
				}
				JOINT RightCollar
				{
					OFFSET 0 0 0
					CHANNELS 3 Zrotation Yrotation Xrotation
					JOINT RightShoulder
					{
						OFFSET -3.06877 1.34672 -0.60964
CHANNELS 3 Zrotation Xrotation Yrotation
						JOINT RightElbow
						{
OFFSET 0 -5.083650 0.000000
CHANNELS 3 Zrotation Xrotation Yrotation
							JOINT RightWrist
							{
OFFSET 0 -3.359840 0.000000
CHANNELS 3 Zrotation Xrotation Yrotation
								JOINT rhand
								{
									OFFSET 0 0 0
CHANNELS 3 Zrotation Xrotation Yrotation
									JOINT RFingers
									{
OFFSET 0 -0.820760 0.000000
CHANNELS 3 Zrotation Xrotation Yrotation
										End Site
										{
OFFSET 0 -0.661720 0.000000
										}
									}
								}
								JOINT RThumb
								{
OFFSET 0 0.000000 0.000000
CHANNELS 3 Zrotation Xrotation Yrotation
									End Site
									{
OFFSET 0 -0.671820 0.671820
									}
								}
							}
						}
					}
				}
			}
		}
	}
}
MOTION
Frames: 9
Frame Time: 0.008333333333333333
1.267504 16.830934 -6.107536 -3.031319 -2.348197 26.177188 0.000000 0.000000 0.000000 -5.141515 -10.987828 -63.914397 5.953664 14.383182 44.795367 -0.365501 -12.720532 -2.780328 0.109071 -2.129660 -5.864083 0.000000 0.000000 0.000000 9.635075 4.946577 -60.753684 -7.216976 -15.511420 49.689545 -0.283820 -3.090635 -11.687580 -0.456361 4.280428 -11.874678 -3.343185 6.075639 28.329283 4.484300 6.899878 13.691435 4.835654 3.033844 -1.108277 -3.502010 -2.209743 -16.574432 -9.663595 0.147572 20.082812 -2.714694 -1.216325 9.118004 0.000000 0.000000 0.000000 27.831145 -27.752217 -84.008803 48.125648 -52.209548 24.685385 47.481174 27.587088 -13.887782 0.000000 0.000000 0.000000 -7.125000 0.000000 0.000000 19.938705 49.005588 -2.044173 0.000000 0.000000 0.000000 -22.824571 -53.416983 33.746865 -20.718641 -31.497950 -5.902509 -36.849713 -21.139918 -16.740894 0.000000 0.000000 0.000000 7.125000 0.000000 0.000000 -5.863923 9.465304 -4.845928
1.255354 16.806656 -6.106994 -2.857337 -2.093122 26.717763 0.000000 0.000000 0.000000 -5.183588 -11.145749 -64.736682 5.996323 14.424722 44.966928 -0.389459 -12.957841 -2.597184 0.105537 -2.094541 -5.767063 0.000000 0.000000 0.000000 9.393093 4.896093 -61.594594 -7.353727 -15.622534 50.199709 -0.308670 -2.769071 -11.884967 -0.268666 3.324580 -9.184551 -3.253769 6.116542 28.438510 4.506948 6.968204 13.740052 4.784489 3.069012 -1.103532 -3.710578 -2.427292 -16.634491 -9.409994 -0.165750 19.900460 -2.627365 -1.344395 9.054550 0.000000 0.000000 0.000000 28.014030 -27.882107 -83.815071 48.729936 -52.469861 25.163458 47.800683 27.979768 -13.902874 0.000000 0.000000 0.000000 -7.125000 0.000000 0.000000 20.287819 49.098600 -2.130375 0.000000 0.000000 0.000000 -23.684102 -54.181972 32.944526 -20.466230 -31.199729 -5.771046 -36.957550 -21.202228 -16.865105 0.000000 0.000000 0.000000 7.125000 0.000000 0.000000 -5.912349 9.292604 -4.906874
1.240724 16.800760 -6.102190 -2.523896 -1.631137 26.826071 0.000000 0.000000 0.000000 -5.421314 -11.475916 -64.962471 6.021871 14.449470 45.069414 -0.414498 -13.252268 -2.497173 0.098695 -2.025902 -5.577304 0.000000 0.000000 0.000000 9.104489 4.571022 -61.887857 -7.469678 -15.714756 50.628649 -0.321117 -2.811652 -12.113012 -0.176444 2.683901 -7.401318 -3.091015 6.099437 29.136984 4.538247 6.964274 13.839553 4.688482 3.071487 -1.289287 -3.983897 -2.689620 -16.874619 -8.998524 -0.525250 19.919166 -2.490742 -1.493392 9.094583 0.000000 0.000000 0.000000 28.270316 -28.178646 -83.733985 49.245493 -52.685969 25.572963 48.201672 28.266480 -13.860657 0.000000 0.000000 0.000000 -7.125000 0.000000 0.000000 20.709698 49.135067 -2.197558 0.000000 0.000000 0.000000 -24.637770 -54.944353 31.999010 -20.199316 -30.881281 -5.633477 -36.997583 -21.253981 -17.043508 0.000000 0.000000 0.000000 7.125000 0.000000 0.000000 -5.907982 9.070674 -4.929657
1.224560 16.788403 -6.098207 -2.287375 -1.196530 26.985469 0.000000 0.000000 0.000000 -5.531399 -11.751981 -65.259718 6.048898 14.475532 45.177539 -0.439044 -13.512691 -2.363432 0.090922 -1.944121 -5.351296 0.000000 0.000000 0.000000 8.912806 4.331373 -62.211401 -7.568326 -15.792194 50.992098 -0.323379 -3.035646 -12.297250 -0.204689 2.893283 -7.983135 -2.889328 6.106590 29.746914 4.609464 7.006121 13.951594 4.606711 3.095263 -1.424446 -4.156461 -2.931961 -16.937385 -8.813368 -0.869253 19.677773 -2.435982 -1.638392 9.013602 0.000000 0.000000 0.000000 28.444630 -28.450981 -83.621688 49.795274 -52.911385 26.011052 48.590341 28.807871 -13.926094 0.000000 0.000000 0.000000 -7.125000 0.000000 0.000000 21.155397 49.314507 -2.346878 0.000000 0.000000 0.000000 -25.741694 -55.611511 30.891466 -20.086437 -30.746273 -5.575471 -36.798763 -21.037200 -17.011203 0.000000 0.000000 0.000000 7.125000 0.000000 0.000000 -5.786378 9.154676 -4.817625
1.207121 16.772155 -6.093751 -2.125960 -0.834267 27.194606 0.000000 0.000000 0.000000 -5.569017 -11.941010 -65.625615 6.077872 14.503349 45.293279 -0.462574 -13.753626 -2.228803 0.082154 -1.847656 -5.084870 0.000000 0.000000 0.000000 8.790196 4.181913 -62.576951 -7.656814 -15.860879 51.316850 -0.317494 -3.344578 -12.412717 -0.338986 3.661356 -10.135165 -2.724322 6.153104 30.265986 4.713163 7.092377 14.062392 4.572904 3.137373 -1.531458 -4.239244 -3.141745 -16.823856 -8.839854 -1.178817 19.216725 -2.453766 -1.771415 8.825920 0.000000 0.000000 0.000000 28.530057 -28.637970 -83.481401 50.369243 -53.142291 26.469598 49.012277 29.585366 -14.095320 0.000000 0.000000 0.000000 -7.125000 0.000000 0.000000 21.677803 49.643631 -2.593954 0.000000 0.000000 0.000000 -26.924787 -56.243099 29.756243 -20.001110 -30.643596 -5.531955 -36.638503 -20.688340 -16.821785 0.000000 0.000000 0.000000 7.125000 0.000000 0.000000 -5.715338 9.416953 -4.727094
1.188419 16.753019 -6.088067 -2.035306 -0.576174 27.457733 0.000000 0.000000 0.000000 -5.556728 -12.016573 -66.065505 6.109302 14.533392 45.418704 -0.484663 -13.980717 -2.111519 0.072268 -1.734301 -4.771999 0.000000 0.000000 0.000000 8.728409 4.134295 -62.995255 -7.738013 -15.923212 51.613602 -0.303736 -3.694528 -12.438688 -0.581947 4.884519 -13.579381 -2.640832 6.251161 30.684052 4.848517 7.226768 14.164219 4.610159 3.198052 -1.619917 -4.229670 -3.308896 -16.517354 -9.090521 -1.440165 18.536588 -2.546007 -1.886901 8.528925 0.000000 0.000000 0.000000 28.513870 -28.697463 -83.312330 50.964572 -53.377196 26.946410 49.495521 30.611204 -14.375845 0.000000 0.000000 0.000000 -7.125000 0.000000 0.000000 22.313043 50.140030 -2.956493 0.000000 0.000000 0.000000 -28.156670 -56.867962 28.663289 -19.877120 -30.494065 -5.468905 -36.672352 -20.268741 -16.488645 0.000000 0.000000 0.000000 7.125000 0.000000 0.000000 -5.791716 9.805790 -4.745667
1.170805 16.735331 -6.080861 -1.905816 -0.352496 27.704629 0.000000 0.000000 0.000000 -5.562842 -12.141404 -66.480833 6.153339 14.575245 45.593904 -0.498347 -14.158829 -2.115595 0.065280 -1.647319 -4.531944 0.000000 0.000000 0.000000 8.621265 4.067840 -63.443265 -7.828125 -15.991269 51.941075 -0.289687 -3.962242 -12.414377 -0.744847 5.499068 -15.341069 -2.604220 6.351681 31.175007 4.961193 7.350507 14.233731 4.644806 3.253007 -1.776193 -4.353992 -3.482349 -16.354819 -9.116797 -1.694049 18.076204 -2.547462 -1.996083 8.338148 0.000000 0.000000 0.000000 28.507246 -28.667693 -83.209844 51.590767 -53.616159 27.450030 49.979780 31.266004 -14.451108 0.000000 0.000000 0.000000 -7.125000 0.000000 0.000000 22.889306 50.364654 -3.172964 0.000000 0.000000 0.000000 -29.392829 -57.535574 27.592724 -19.619814 -30.181149 -5.339124 -37.054197 -20.059767 -16.236945 0.000000 0.000000 0.000000 7.125000 0.000000 0.000000 -6.078646 10.021606 -4.956461
1.156082 16.716037 -6.073196 -1.727708 -0.145209 28.012081 0.000000 0.000000 0.000000 -5.607567 -12.303744 -66.958002 6.200819 14.620128 45.782373 -0.510883 -14.327071 -2.131929 0.062103 -1.607579 -4.422319 0.000000 0.000000 0.000000 8.456687 3.973930 -63.992369 -7.927097 -16.065156 52.299354 -0.282113 -4.146033 -12.432579 -0.791457 5.678529 -15.854559 -2.558104 6.422268 31.758424 5.103343 7.424848 14.203160 4.570830 3.281151 -1.937656 -4.581014 -3.648871 -16.333548 -9.016454 -1.913593 17.760298 -2.493367 -2.091997 8.226243 0.000000 0.000000 0.000000 28.499245 -28.612351 -83.040376 52.291933 -53.877113 28.015674 50.382916 31.623952 -14.341630 0.000000 0.000000 0.000000 -7.125000 0.000000 0.000000 23.302818 50.318547 -3.206210 0.000000 0.000000 0.000000 -30.670581 -58.217417 26.530881 -19.375731 -29.882374 -5.216964 -37.307174 -20.002984 -16.140878 0.000000 0.000000 0.000000 7.125000 0.000000 0.000000 -6.257138 10.079952 -5.096829
1.143352 16.695297 -6.064981 -1.531831 0.051418 28.367176 0.000000 0.000000 0.000000 -5.666519 -12.481536 -67.483473 6.249828 14.666187 45.976422 -0.522579 -14.492862 -2.166378 0.063644 -1.626422 -4.474336 0.000000 0.000000 0.000000 8.269256 3.875765 -64.600901 -8.030696 -16.141672 52.673050 -0.279431 -4.290077 -12.501921 -0.766880 5.591599 -15.603911 -2.502629 6.470338 32.307814 5.240947 7.472025 14.157655 4.471031 3.295916 -2.067435 -4.858010 -3.812829 -16.380023 -8.857837 -2.116547 17.518059 -2.413518 -2.181882 8.154121 0.000000 0.000000 0.000000 28.484716 -28.545871 -82.819708 53.038094 -54.148492 28.619258 50.723207 31.868275 -14.170869 0.000000 0.000000 0.000000 -7.125000 0.000000 0.000000 23.622169 50.173830 -3.167991 0.000000 0.000000 0.000000 -32.001349 -58.892148 25.465282 -19.146849 -29.600459 -5.103286 -37.459163 -20.127669 -16.222612 0.000000 0.000000 0.000000 7.125000 0.000000 0.000000 -6.341085 9.947624 -5.183028
